<svg xmlns="http://www.w3.org/2000/svg" width="250" height="250" viewBox="0 0 250 250"><path fill="#393939" d="M182.011 217.291s-20.049-.86-31.155-18.725l22.214-7.247 6.275-.965"/><path fill="#393939" d="M91.332 87.649S52.29 142.075 57.22 188.395c1.653 15.53 7.806 22.913 64.371 22.913 56.562 0 97.475-31.529 36.252-129.585"/><path fill="#393939" d="M66.517 217.291s20.05-.86 31.156-18.725l-22.212-7.247-6.278-.965"/><path fill="#EFEFEF" d="M79.937 130.939c-5.658 16.925-9.941 36.654-8.311 55.069 1.345 15.182 6.35 22.402 52.344 22.402 36.703 0 65.544-10.932 50.126-73.74-13.248-12.238-30.448-19.63-49.253-19.63-16.811.001-32.336 5.907-44.906 15.899z"/><path fill="#393939" d="M217.288 203.803c-8.145 15.827-23.431 24.193-34.151 18.678-10.718-5.518-12.803-22.814-4.66-38.646 8.142-15.827 23.433-24.188 34.149-18.677 10.719 5.518 12.806 22.819 4.662 38.645z"/><path fill="#4C4C4C" d="M213.122 204.187c-6.457 12.546-18.563 19.177-27.051 14.812-8.485-4.365-10.129-18.072-3.677-30.617 6.458-12.547 18.568-19.184 27.052-14.812 8.485 4.363 10.131 18.073 3.676 30.617z"/><path fill="#393939" d="M31.24 203.803c8.143 15.827 23.434 24.193 34.151 18.678 10.716-5.518 12.804-22.814 4.661-38.646-8.142-15.827-23.433-24.188-34.151-18.677-10.717 5.518-12.805 22.819-4.661 38.645z"/><path fill="#4C4C4C" d="M35.407 204.187c6.454 12.546 18.564 19.177 27.049 14.812 8.486-4.365 10.131-18.072 3.676-30.617-6.455-12.547-18.565-19.184-27.049-14.812-8.484 4.363-10.131 18.073-3.676 30.617z"/><path fill="#393939" d="M176.961 148.297s-7.77-31.145-51.291-31.145-55.179 30.419-55.179 30.419l6.217-36.939 94.119.048"/><path fill="#393939" d="M161.962 82.19s46.355 44.907 33.317 77.743c-9.721 24.486-48.288 64.226-62.291 50.703-14.002-13.521 29.744-52.212 31.388-59.392 3.863-16.903-8.209-33.32-14.002-38.633m-55.981.001c-5.795 5.313-17.867 21.73-14.003 38.633 1.642 7.18 40.046 47.321 26.041 60.839-14.001 13.521-47.224-27.664-56.947-52.15C36.447 127.098 82.803 82.19 82.803 82.19l8.176.482"/><path fill="#EFEFEF" d="M101.17 11.621s21.352-9.885 43.492 4.349c22.143 14.233 21.35 36.771 21.35 36.771s13.05 23.724-9.485 40.331c-22.539 16.605-48.223 10.786-53.776 8.304-5.549-2.483-28.468-10.676-28.072-30.051.396-19.373 5.026-15.548 5.477-24.973.454-9.427 7.177-28.406 21.014-34.731z"/><path fill="#F8F8F8" d="M125.156 8.706c-13.697-1.846-23.986 2.915-23.986 2.915-13.838 6.326-20.561 25.305-21.015 34.73-.451 9.425-5.082 5.6-5.477 24.973-.396 19.375 22.523 27.568 28.072 30.051 2.952 1.317 11.583 3.579 22.406 2.918V8.706z"/><path fill="#F8F8F8" d="M140.711 95.574c-7.291 2.941-18.161 4.627-31.105 1.056-21.334-5.89-10.543-33.738 13.708-33.739 24.248-.002 39.177 23.899 17.397 32.683z"/><path fill="#FFF" d="M125.156 98.634V62.939a37.355 37.355 0 0 0-1.843-.049c-24.251.001-35.042 27.849-13.708 33.739 5.616 1.55 10.839 2.108 15.551 2.005z"/><path fill="#393939" d="M144.266 9.248s-2.741 2.37-2.762 4.328c10.768 5.294 16.923 14.792 20.185 22.238 0 0 2.426.042 4.194-.964 5.511-2.852 7.284-10.315 6.54-15.939-.744-5.63-5.767-6.503-7.604-8.103-1.84-1.599-1.29-5.281-7.754-6.68-6.468-1.399-12.781 5.107-12.781 5.107m-62.48 26.094c3.22.2 5.974-1.207 6.55-2.511.281-.621.268-1.122-.045-1.507.75-.632.859-1.532.398-2.982-.119-.383-.373-1.186-.234-1.402.08-.133.441-.253 1.07-.356.291-.05.565-.084.804-.118.862-.112 1.436-.186 1.59-.705.149-.495-.29-.923-.71-1.286-.394-.341-.772-.614-1.111-.86-.466-.339-.998-.726-.956-.913.052-.253.182-.486.748-.486.421 0 .981.133 1.659.396.448.169.826.256 1.161.256.525 0 .839-.22 1.005-.404.373-.396.41-.956.39-1.369.47.072 1.222.312 1.793.58.503.236.956.356 1.342.356.757 0 1.258-.47 1.314-1.226.014-.185.032-.297.044-.367.036-.004.075-.004.117-.011.602-.066 1.757-.679 1.83-1.858 0-.034.006-.061.006-.087.099.02.221.039.353.053.148.019.335.034.546.034.672 0 1.602-.141 2.202-.794.419-.466.599-1.086.53-1.852-.006-.033-.006-.087-.009-.161-.163-3.604-1.661-12.124-12.087-13.44-.794-.1-1.582-.15-2.337-.15-7.551 0-13.288 4.801-17.049 14.263-2.346 5.905-2.693 13.487 3.378 17.067.779.459 1.566.824 2.387 1.125-.007.007-.007.021-.014.03m34.013 28.376c6.49-8.731 7.998-15.855 8.784-20.748.915-5.641-3.671-11.772-9.638-8.048-1.753 1.101-9.65 6.261-17 10.793-4.65 2.86-9.055 10.764-4.146 17.689 4.911 6.919 15.501 9.052 22 .314zm-2.02-9.314c-.736-1.259-2.427-2.141-4.391-2.141-1.525 0-2.878.531-3.759 1.355.301-1.709 1.441-4.654 4.322-4.374 2.881.287 3.855 2.938 3.855 4.903 0 .088-.021.172-.027.257zm47.29 9.423c5.113-6.771.936-14.803-3.625-17.802-7.214-4.744-14.958-10.134-16.678-11.281-5.856-3.905-10.62 2.094-9.869 7.76.643 4.914 1.941 12.078 8.176 20.999 6.239 8.922 16.889 7.101 21.996.324zm-19.668-9.679c0-1.966.971-4.617 3.853-4.903 2.886-.28 4.031 2.665 4.319 4.374-.876-.824-2.229-1.355-3.75-1.355-1.972 0-3.655.882-4.393 2.141-.009-.086-.029-.17-.029-.257zm-10.758 25.679c1.538-.259 2.297-1.626 3.879-3.039 1.75-1.569 3.455-2.207 3.768-3.792.308-1.586-.118-3.344-4.138-4.002-3.971-.65-3.521 2.174-8.725.171-5.205-2.004-6.431 1.795-6.303 4.106.124 2.311 3.844 3.532 6.53 5.182 1.095.664 1.812 1.064 2.28 1.303-.001 0 1.323.345 2.709.071z"/><path fill="#393939" stroke="#393939" stroke-width="3" stroke-miterlimit="10" d="M132.535 87.271c0 1.978-2.829.396-6.324.396-3.492 0-6.325 1.319-6.325-.396 0-1.713 2.833-.79 6.325-.79 3.495 0 6.324-1.185 6.324.79z"/><path fill="#62DCF8" d="M146.169 53.37s-3.533 4.719-.187 4.719c3.35 0 .187-4.719.187-4.719z"/><path fill="#78ECFF" d="M145.681 54.661s-.891 1.829-.507 2.596c.383.766.807.51.767.169-.046-.34-.686-.594-.26-2.765z"/><path fill="#DDD" d="M83.272 193.425h76.198v24.084H83.272z"/><path fill="#EEE" d="M151.188 187.115H91.554l-8.282 6.31h76.198z"/><ellipse fill="#393939" cx="121.372" cy="190.271" rx="17.511" ry="1.591"/><path fill="#FFF" d="M131.387 176.335c-1.869-.183-3.321-1.388-5.185-1.276-5.411.315-5.411-1.276-9.231.955-3.822 2.226-7.007-1.91-8.599.638-1.295 2.069 1.878 11.487 3.112 14.935 2.812.173 6.298.409 9.969.409 4.696 0 8.875-.301 12.017-.574-.015-1.059-.007-7.902 2.919-13.182.001-.001-1.923-1.599-5.002-1.905z"/><path fill="#F4F4F4" d="M114.062 176.702s1.103 3.454 1.103 6.765c0 0 .831-3.035.417-6.9l-1.52.135zm8.558-1.699s.551 7.314-.276 11.315c0 0 1.678-6.53 1.678-11.217l-1.402-.098zm7.314 1.015s-.691 3.173.136 5.657c0 0-.707-4.021.812-5.4l-.948-.257z"/><ellipse fill="#1578B6" cx="121.372" cy="205.468" rx="20.61" ry="6.735"/><path fill="#29AE9C" d="M121.373 208.401c-10.058 0-18.426-1.327-20.24-4.201-.239.41-.371.832-.371 1.268 0 3.719 9.228 6.735 20.611 6.735 11.381 0 20.608-3.017 20.608-6.735 0-.436-.13-.857-.37-1.268-1.811 2.874-10.182 4.201-20.238 4.201z"/><path fill="#FFF" d="M129.729 203.777c0 .533-3.744.968-8.355.968-4.614 0-8.354-.435-8.354-.968 0-.539 3.74-.973 8.354-.973 4.611.001 8.355.434 8.355.973zm28.859 8.368c-.319.214-.786.229-.786.229l-.306-.761s-2.268 1.137-3.135 2.55c-1.553 2.524-1.604 2.841-3.742 4.006-2.135 1.167-1.941 2.722-1.941 2.722s.777 2.544 1.555 3.106c.774.563 5.439.389 5.439 1.943 0 1.552-.387 5.075 1.165 4.686.126-.031.439-.08.549-.1 1.275-.227 1.747.208 3.534-.508 1.943-.774 3.11-.194 5.052-2.136 1.941-1.942 3.107-1.554 3.495-3.497.389-1.943-.971-5.05-.971-5.05s-.389-1.556.193-2.915c.894-.916.583-1.361.583-1.361-1.553-1.166-2.1-2.91-3.494-3.109-.089-.012-.053-.748-.194-.776-1.695-.327-5.924.254-6.996.971z"/><path fill="#F4F4F4" d="M157.802 212.373l.01.022 1.542 6.356-.43-6.77a1.99 1.99 0 0 0-.336.162c-.237.157-.5.215-.786.23zm3.311 4.994l3.265.52-.807 8.987 2.082-9.225zm4.665-5.418l.278 3.562.036-3.499z"/><path fill="#75E1F9" d="M152.797 190.806c-1.736-.348-.621 0-2.484.208s-4.352-1.039-4.352.208c0 1.243.824 2.071 2.279 2.071 1.448 0 2.903 0 2.903 1.246 0 1.24-1.16 3.356.037 4.167 1.203.808-.037-3.961 1.411-4.582 1.452-.622 2.899-1.455 2.07-2.074-.824-.621-.824-1.036-1.864-1.244z"/><path fill="#62DCF8" d="M150.136 193.425c.597.148 1.008.452 1.008 1.114 0 1.24-1.161 3.356.037 4.167 1.203.808-.037-3.961 1.411-4.582a11.74 11.74 0 0 0 1.402-.699h-3.858zm.981 6.464s-1.464 1.953-.08 1.953c1.388 0 .08-1.953.08-1.953z"/><path fill="#78ECFF" d="M150.916 200.42s-.37.758-.214 1.074c.157.317.335.212.315.07-.015-.141-.278-.246-.101-1.144zm-2.09-8.966c-.684-.559-2.333-.536-2.383-.147-.05.39.144 1.651 2.478 1.651 0 0 .101 0-.287-.533-.391-.534.725-.534.192-.971z"/><path fill="#FFF" d="M141.669 222.59c-3.7-.676-4.558-1.32-4.558-1.32l-.131-1.067s-3.216 1.036-4.09 1.62c-.875.583-2.914-.584-2.914-.584l-.022-.474s-1.657.257-2.31 1.347c-.878 1.461-1.696 4.799-1.696 4.799l-2.042 3.208s-4.953-.875.292 2.038c5.245 2.915 9.909 3.789 9.909 3.789l2.333.293s.352 1.5.875 1.748c.52.244 1.5.066 2.328-.293.831-.358 2.856-1.833 3.208-2.331.353-.499.584-3.206.584-3.206s1.663-.766 2.367-4.794c.367-2.091-.329-2.669-.895-3.112-.562-.441-.034-1.078-3.238-1.661z"/><path fill="#F4F4F4" d="M137.111 221.27l.638 7.39.211-7.002zm-7.134-.032l.437 5.284.05-5.051zm9.25 3.741l3.263.524-.127 5.975 1.405-6.214z"/><path fill="#886ECE" d="M87.375 233.889l-.051.24-.452-.152z"/><path fill="#8E6159" d="M85.674 241.095s1.647-2.224 4.786-1.733l.553-2.087-1.39-.704-3.711-.031-2.177 2.746"/><path fill="#8E6159" d="M91.567 235.124l-.277 1.28s-.494.005-.597.48c-.104.476-.035-1.508-.035-1.508l.909-.252z"/><path fill="#895A4F" d="M85.579 239.55c.376-1.728 2.757-2.693 5.434-2.275a1.936 1.936 0 0 1-.1-1.091c.089-.407.317-.766.654-1.06l-28.422-6.658-24.201 7.785 37.481 8.578 9.416-3.614c-.279-.543-.383-1.111-.262-1.665z"/><path fill="#7F534A" d="M83.395 242.568l-13.481-2.926-.625.199 13.376 2.977zm2.15-2.769l-9.696-2.104-.625.198 10.314 2.293a2.184 2.184 0 0 1 .007-.387zm3.517-2.585l-7.094-1.539-.625.197 6.781 1.508c.295-.079.608-.133.938-.166z"/><path fill="#7F534A" d="M91.176 235.572l-22.98 7.415.354.077 22.453-7.161c.043-.116.102-.222.173-.331z"/><path fill="#FFF" d="M87.087 233.938s1.231.711 1.076 1.179c-.157.463-.437.986-.729 1.059l-.823.212s-.469.118-.602.479c-.133.36.688 1.195-1.353 1.919-2.043.722-.805 1.616-4.075 1.351-2.147-.175-2.546.455-3.099.482-.552.028-.89-.582-1.29-.445-.4.135-.524.817-.859 1.144-.334.328-2.232.569-2.232.569s-.813.595-1.503.284c-1.351-.605-1.377.157-1.674.302-.483.238-1.513.062-1.513.062s-3.417-.354-3.987-.533c-.573-.18-1.364-1.128-1.364-1.128l24.027-6.936z"/><path fill="#9D83E2" d="M62.999 241.915l-37.407-8.561 24.377-8.026 37.406 8.561z"/><path fill="#7F534A" d="M76.425 244.829l-37.405-8.56-.362 2.694 37.203 8.516.491-2.297.42-.473z"/><path fill="#886ECE" d="M62.999 241.915l-37.407-8.561-.336 2.571 37.2 8.54z"/><path fill="#9272D8" d="M55.936 235.61c-7.437-.504-11.046-5.732-13.648-7.753l-16.695 5.497L63 241.915l9.692-3.192c-3.894-1.617-9.321-2.609-16.756-3.113z"/><path fill="#8E6159" d="M85.841 241.215l-9.047 3.471-.442.496-.491 2.297 9.442-3.779z"/><path fill="#7F534A" d="M81.669 245.148l.224-.073.48-2.208.304-.442-.632.224.104.293z"/><path fill="#774D46" d="M68.195 243l.353.079-.591 2.643-.354-.079z"/><path fill="#7F534A" d="M88.155 239.49l.353-1.692.472-.593-.856.175.164.361-.397 1.829c.086-.027.173-.055.264-.08z"/><path fill="#D7E2DE" d="M175.046 242.895s-1.764 1.424 2.847-9.231c4.611-10.651 5.917-13.424 6.771-12.986.855.432-7.528 21.608-9.618 22.217zm40.168-10.209c-.479-.833-1.703-1.037-2.737-.448l-3.36 1.91c-1.03.59-1.486 1.745-1.008 2.579.475.841 1.704 1.043 2.734.455l3.361-1.909c1.033-.591 1.486-1.746 1.01-2.587zm-2.588 2.548c-.385.222-.902.034-1.159-.416-.254-.45-.149-.99.237-1.212l1.249-.712c.386-.219.907-.033 1.16.416.258.452.151.993-.233 1.214l-1.254.71z"/><path fill="#E8EDEB" d="M210.214 244.416s1.333.726 1.053-2.092c-.277-2.817-1.609-4.594.261-12.027 1.866-7.436-4.166-7.351-4.166-7.351"/><path fill="#D7E2DE" d="M207.458 246.289s1.194-2.074 2.8-1.978c0 0 .652-.47.258-1.985-.393-1.521-1.172-5.605-.072-9.177 1.097-3.573 1.431-6.428.584-7.241-.846-.814-2.948-3.228-4.036-2.796-1.084.432-6.23-.147-6.23-.147s6.569 1.791 6.862 4.917c.296 3.126-.166 18.407-.166 18.407z"/><path fill="#F9CE46" d="M207.565 246.027s-1.106 1.17-3.236.549c-2.129-.623-8.137-2.324-17.88-.246 0 0-2.438.442-3.953-.212l-7.45-3.224s7.295-19.627 9.617-22.218l6.744 2.769s1.967 1 1.85 3.349-.572 4.099.472 4.103c1.05.004 6.547-7.508 6.894-7.959.348-.452 6.804 1.596 7.265 4.342.454 2.746.78 14.127-.323 18.747z"/><path fill="#EFEDE8" d="M188.438 245.898l.243.012c8.434-1.395 13.688.092 15.648.666.53.151.997.196 1.397.175-.163-.645-2.538-10.05-3.484-18.558 0 0-2.74 3.907-5.38 5.164-2.642 1.251-3.647-.232-3.647-.232s-.174 8.021-4.777 12.773zm-4.07-1.338s2.236-9.673 5.288-13.603l-.957-.562s-5.613 9.861-5.646 13.743c-.032 3.885 1.315.422 1.315.422z"/><path fill="#FFF" d="M183.514 223.331l6.743 2.77s1.966 1.002 1.853 3.349c-.121 2.347-.575 4.1.47 4.102 1.048.004 6.548-7.507 6.894-7.961.093-.12.639-.055 1.391.152 1.599.146 4.233.321 4.977.024a.83.83 0 0 1 .386-.038l-.014-.125s6.032-.086 4.167 7.348a38.612 38.612 0 0 0-.613 2.827l1.562-.886a1.87 1.87 0 0 1 .14-.074c-.254-.45-.149-.99.237-1.212l1.249-.712c.386-.219.907-.033 1.16.416.258.452.151.993-.233 1.214l-.424.239a1.512 1.512 0 0 1 .609.585l.139-.076c1.033-.591 1.486-1.745 1.01-2.587-.479-.833-1.703-1.037-2.737-.448l-1.561.885c.146-.842.346-1.777.611-2.825 1.866-7.436-4.166-7.351-4.166-7.351l.017.126a.79.79 0 0 0-.387.04c-.743.293-3.382.115-4.977-.025-.753-.213-1.299-.271-1.393-.149-.347.451-5.844 7.963-6.894 7.959-1.044-.004-.589-1.754-.472-4.103s-1.85-3.349-1.85-3.349l-6.744-2.769c-.854-.438-2.159 2.335-6.771 12.986-.087.193-.162.373-.24.558 3.878-8.918 5.065-11.296 5.861-10.89z" opacity=".2"/><path d="M175.046 242.895l7.45 3.224c1.516.654 3.953.212 3.953.212a51.59 51.59 0 0 1 3.011-.543h.004c5.904-.872 10.172-.325 12.761.243l.032.007.285.064c.021.003.036.007.054.011.09.022.172.04.257.063.021.003.046.011.065.016.077.017.156.038.227.057.024.008.049.014.074.021.069.018.136.032.202.051l.081.021c.058.018.119.032.175.049l.088.025c.053.015.104.028.151.043.025.008.05.015.076.021.118.033.239.066.337.098.134.038.262.071.387.096l.188.029c.059.011.118.022.173.026 1.313.158 2.116-.386 2.388-.608l-.006.17s1.163-2.02 2.742-1.976l.014.103s1.333.726 1.053-2.092c-.008-.073-.018-.147-.025-.221-.016-.006-.024-.011-.024-.011l-.014-.104c-1.573-.043-2.738 1.977-2.738 1.977l.007-.17c-.273.225-1.076.767-2.39.61-.055-.007-.112-.018-.171-.028-.065-.009-.122-.015-.188-.028a5.59 5.59 0 0 1-.386-.097c-.104-.03-.218-.065-.336-.096l-.078-.025a2.04 2.04 0 0 1-.15-.043 1.722 1.722 0 0 1-.091-.023 3.971 3.971 0 0 0-.175-.046l-.08-.024c-.068-.016-.134-.031-.202-.052-.024-.006-.049-.011-.074-.019-.072-.018-.148-.038-.229-.057a.724.724 0 0 1-.062-.018l-.255-.06c-.021-.005-.038-.006-.057-.011a8.15 8.15 0 0 0-.286-.066.121.121 0 0 0-.031-.009c-2.59-.565-6.858-1.112-12.762-.243l-.005.002c-.25.037-.503.078-.762.122-.726.116-1.472.257-2.247.422 0 0-2.438.442-3.955-.212l-7.448-3.225s-1.699 1.364 2.613-8.687c.017-.04.035-.085.051-.128-.259.606-.537 1.242-.823 1.907-.084.189-.157.365-.235.546-4.314 10.05-2.614 8.686-2.614 8.686z" opacity=".02"/></svg>