<svg xmlns="http://www.w3.org/2000/svg" width="128" height="129" viewBox="0 0 128 129"><path fill="#393939" d="M92.3 8.9s-3.6 3.6-3.7 6.1c10.4 6.2 21.5 18 25.7 27.4 0 0 3.1 0 5.3-1.2 7-3.6 9.2-13 8.3-20.1-.9-7.1-7.3-8.2-9.6-10.2s-1.6-6.7-9.8-8.4C100.3.7 92.3 8.9 92.3 8.9z"/><path fill="#F4F4F4" d="M119.7 63.8c0-1.9-.2-3.9-.4-5.8-.7-4.8-2-9.6-3.9-14.1-2.7-6.4-6.5-12.2-11.3-17.2-6.4-6.7-14.4-12-23.1-15.2-7.9-3-16.4-4.2-24.8-3.6-5.3.3-10.6 1.3-15.6 3.1-5.8 2-10.8 5.8-14.8 10.4C21 26.7 17.5 33.1 15 39.8c-1.1 3-2 6-2.7 9.1-.5 2.6-.8 5.1-1 7.7-.4 4.6-2.6 8.5-4.1 12.8-1.1 3-1.8 6-2.2 9.1-.5 4.1-.8 8.4-.3 12.5.7 6.4 3.7 12.2 7.9 16.9 3.9 4.4 8.8 7.9 13.9 10.8 3.8 2.2 7.9 4 11.9 5.7 7.2 3.1 15 4.3 22.8 4.4 8.8.2 17.7-1 26.1-3.8 9.1-3 18.1-7.8 25.1-14.4 5.3-5 9.3-11.3 11-18.4 1.3-5.5 1.3-11.2.3-16.7-.7-3.6-1.8-7.1-3.3-10.5-.2-.2-.4-.7-.7-1.2z"/><path d="M55.2 43.5c-9.6-5.1-18.8 1.8-21.7 8.1-4.5 10-9.8 20.9-10.9 23.3-3.7 8.2 4.8 12.9 11.8 10.9 6.1-1.8 14.8-4.9 24.8-14.5 10-9.7 5.5-22.7-4-27.8zM50 66.9c-.9-1.6-3.1-2.7-5.6-2.7-1.9 0-3.7.7-4.8 1.7.4-2.2 1.8-5.9 5.5-5.6 3.7.4 4.9 3.7 4.9 6.2v.4zm26 4.4c10 9.6 18.7 12.7 24.8 14.5 7 2.1 15.5-2.7 11.8-10.9-1.1-2.4-6.3-13.2-10.8-23.3-2.9-6.3-12.1-13.2-21.7-8.1C70.4 48.6 66 61.6 76 71.3zm9.2-4.7c0-2.5 1.2-5.9 4.9-6.2 3.7-.4 5.1 3.4 5.5 5.6-1.1-1-2.8-1.7-4.8-1.7-2.5 0-4.7 1.1-5.6 2.7v-.4zM91.1 99c-.4 2.5-3.4 5.5-10.5 4.2-5.2-.9-8.3-4.3-9.5-6 2-.3 3-2.1 5.1-4 2.3-2.1 4.5-2.9 4.9-4.9.4-2.1-.1-4.4-5.4-5.2-5.2-.8-4.6 2.8-11.4.2-6.8-2.6-8.4 2.3-8.2 5.4s5 4.6 8.5 6.8c1.4.9 2.4 1.4 3 1.7-1.2 1.7-4.3 5.1-9.6 6.1-7.1 1.3-10.1-1.7-10.5-4.2-.4-2.5-2.7.6-.4 3.8 2.2 3.2 8.3 6.8 15.1 3.4 4.6-2.3 6.4-4.6 7.2-6.7.8 2.2 2.6 4.4 7.2 6.7 6.8 3.4 12.9-.2 15.1-3.4 2.1-3.4-.2-6.4-.6-3.9zM13.4 41.9c4.1.3 7.5-1.5 8.3-3.2.4-.8.3-1.4-.1-1.9.9-.8 1.1-1.9.5-3.8-.1-.5-.5-1.5-.3-1.8.1-.2.6-.3 1.3-.4.4-.1.7-.1 1-.2 1.1-.1 1.8-.2 2-.9.2-.6-.4-1.2-.9-1.6-.5-.4-1-.8-1.4-1.1-.6-.4-1.3-.9-1.2-1.1.1-.3.2-.6.9-.6.5 0 1.2.2 2.1.5.6.2 1 .3 1.5.3.7 0 1.1-.3 1.3-.5.5-.5.5-1.2.5-1.7.6.1 1.5.4 2.3.7.6.3 1.2.5 1.7.5 1 0 1.6-.6 1.7-1.5 0-.2 0-.4.1-.5h.1c.8-.1 2.2-.9 2.3-2.3v-.1c.1 0 .3 0 .4.1h.7c.8 0 2-.2 2.8-1 .5-.6.8-1.4.7-2.3v-.2C41.5 12.8 39.6 2 26.5.3c-1-.1-2-.2-2.9-.2C14 0 6.7 6.1 2 18c-3 7.4-3.4 17 4.3 21.5 1 .6 2 1 3 1.4" fill="#393939"/></svg>